<svg width="18" height="20" viewBox="0 0 18 20" fill="none" xmlns="http://www.w3.org/2000/svg">
<path fill-rule="evenodd" clip-rule="evenodd" d="M5.34139 4.28571H12.6586C12.5894 3.95788 12.4701 3.56408 12.2667 3.17658C12.0299 2.7256 11.6865 2.29635 11.1855 1.97825C10.6892 1.66313 9.99376 1.42857 9 1.42857C8.00624 1.42857 7.31078 1.66313 6.81446 1.97825C6.31345 2.29635 5.97008 2.7256 5.73332 3.17658C5.52988 3.56408 5.41058 3.95788 5.34139 4.28571ZM14.1818 4.28571C14.1779 4.2619 14.1738 4.23763 14.1695 4.21293C14.091 3.76436 13.9326 3.15536 13.6083 2.5377C13.2826 1.91725 12.7822 1.27508 12.0176 0.789607C11.2483 0.301157 10.2562 0 9 0C7.74376 0 6.75172 0.301157 5.98241 0.789607C5.2178 1.27508 4.71742 1.91725 4.39168 2.5377C4.06741 3.15536 3.90902 3.76436 3.83052 4.21293C3.82619 4.23763 3.8221 4.2619 3.81823 4.28571H0.75C0.335786 4.28571 0 4.60551 0 5V19.2857C0 19.6802 0.335786 20 0.75 20H17.25C17.6642 20 18 19.6802 18 19.2857V5C18 4.60551 17.6642 4.28571 17.25 4.28571H14.1818ZM1.5 5.71429V18.5714H16.5V5.71429H1.5Z" fill="black"/>
</svg>
