<svg width="18" height="17" viewBox="0 0 18 17" fill="none" xmlns="http://www.w3.org/2000/svg">
<path fill-rule="evenodd" clip-rule="evenodd" d="M3.6 0C3.93137 0 4.2 0.262454 4.2 0.586207V1.75862H6.6V0.586207C6.6 0.262454 6.86863 0 7.2 0C7.53137 0 7.8 0.262454 7.8 0.586207V1.75862H10.2V0.586207C10.2 0.262454 10.4686 0 10.8 0C11.1314 0 11.4 0.262454 11.4 0.586207V1.75862H13.8V0.586207C13.8 0.262454 14.0686 0 14.4 0C14.7314 0 15 0.262454 15 0.586207V1.75862H17.4C17.7314 1.75862 18 2.02107 18 2.34483V16.4138C18 16.7375 17.7314 17 17.4 17H0.6C0.268629 17 0 16.7375 0 16.4138V2.34483C0 2.02107 0.268629 1.75862 0.6 1.75862H3V0.586207C3 0.262454 3.26863 0 3.6 0ZM3 2.93103H1.2V7.03448H16.8V2.93103H15V4.10345C15 4.4272 14.7314 4.68966 14.4 4.68966C14.0686 4.68966 13.8 4.4272 13.8 4.10345V2.93103H11.4V4.10345C11.4 4.4272 11.1314 4.68966 10.8 4.68966C10.4686 4.68966 10.2 4.4272 10.2 4.10345V2.93103H7.8V4.10345C7.8 4.4272 7.53137 4.68966 7.2 4.68966C6.86863 4.68966 6.6 4.4272 6.6 4.10345V2.93103H4.2V4.10345C4.2 4.4272 3.93137 4.68966 3.6 4.68966C3.26863 4.68966 3 4.4272 3 4.10345V2.93103ZM16.8 8.2069H1.2V15.8276H16.8V8.2069Z" fill="black"/>
</svg>
