<svg width="23" height="15" viewBox="0 0 23 15" fill="none" xmlns="http://www.w3.org/2000/svg">
<path fill-rule="evenodd" clip-rule="evenodd" d="M11.5 1.57716C11.3571 1.50075 11.1854 1.41293 10.9875 1.31869C10.3633 1.02139 9.46823 0.655135 8.38827 0.384132C6.21674 -0.160792 3.25972 -0.324588 0.321051 1.25562C0.119574 1.36396 0 1.53888 0 1.72527V14.4228C0 14.639 0.1605 14.8371 0.415854 14.936C0.671209 15.035 0.978592 15.0182 1.21228 14.8925C3.67101 13.5704 6.1121 13.5694 7.96826 13.9021C8.9017 14.0694 9.68243 14.3211 10.2292 14.5311C10.5018 14.6358 10.714 14.7293 10.8554 14.7952C10.926 14.8281 10.9788 14.8541 11.0125 14.871C11.0293 14.8795 11.0413 14.8857 11.0483 14.8893L11.0544 14.8925L11.0549 14.8928C11.0549 14.8928 11.055 14.8928 11.055 14.8928C11.0552 14.8929 11.0554 14.8931 11.0556 14.8932C11.3219 15.0357 11.679 15.0356 11.9451 14.8928L11.9456 14.8925L11.9517 14.8893C11.9587 14.8857 11.9707 14.8795 11.9875 14.871C12.0212 14.8541 12.074 14.8281 12.1446 14.7952C12.286 14.7293 12.4982 14.6358 12.7708 14.5311C13.3176 14.3211 14.0983 14.0694 15.0317 13.9021C16.8879 13.5694 19.329 13.5704 21.7877 14.8925C22.0214 15.0182 22.3288 15.035 22.5841 14.936C22.8395 14.8371 23 14.639 23 14.4228V1.72527C23 1.53888 22.8804 1.36396 22.6789 1.25562C19.7403 -0.324588 16.7833 -0.160792 14.6117 0.384132C13.5318 0.655135 12.6367 1.02139 12.0125 1.31869C11.8146 1.41293 11.6429 1.50075 11.5 1.57716ZM12.2667 13.4306C12.8792 13.206 13.7036 12.9536 14.6766 12.7792C16.5438 12.4445 18.9718 12.3973 21.4667 13.3884V2.03046C19.1483 0.900993 16.8683 1.03462 15.0966 1.47922C14.1641 1.71323 13.382 2.03236 12.8323 2.29418C12.597 2.40623 12.4063 2.50683 12.2667 2.58425V13.4306ZM10.7333 13.4306C10.1208 13.206 9.29639 12.9536 8.32341 12.7792C6.45622 12.4445 4.02815 12.3973 1.53333 13.3884V2.03046C3.85172 0.900993 6.13166 1.03462 7.90339 1.47922C8.83594 1.71323 9.61797 2.03236 10.1677 2.29418C10.403 2.40623 10.5937 2.50683 10.7333 2.58425V13.4306Z" fill="black"/>
</svg>
