<svg width="23" height="20" viewBox="0 0 23 20" fill="none" xmlns="http://www.w3.org/2000/svg">
<path fill-rule="evenodd" clip-rule="evenodd" d="M11.5 0C11.8135 0 12.0954 0.165967 12.2118 0.419073L15.0857 6.66667H22.2333C22.5527 6.66667 22.8386 6.83886 22.951 7.09885C23.0633 7.35885 22.9785 7.65216 22.7382 7.83505L16.9659 12.227L19.1396 19.1579C19.2265 19.4348 19.0998 19.7289 18.8253 19.888C18.5507 20.0472 18.1898 20.0358 17.9293 19.8596L11.5 15.5112L5.07071 19.8596C4.81022 20.0358 4.44933 20.0472 4.17475 19.888C3.90018 19.7289 3.77354 19.4348 3.86037 19.1579L6.03414 12.227L0.261847 7.83505C0.0214746 7.65216 -0.0633188 7.35885 0.0490224 7.09885C0.161364 6.83886 0.4473 6.66667 0.766699 6.66667H7.91429L10.7882 0.419073C10.9046 0.165967 11.1865 0 11.5 0ZM11.5 2.46172L9.14517 7.58093C9.02874 7.83404 8.74684 8 8.43334 8H2.80714L7.40487 11.4983C7.62571 11.6663 7.71688 11.9292 7.63966 12.1754L5.94484 17.5792L11.0293 14.1404C11.3062 13.9532 11.6938 13.9532 11.9707 14.1404L17.0552 17.5792L15.3603 12.1754C15.2831 11.9292 15.3743 11.6663 15.5951 11.4983L20.1929 8H14.5667C14.2532 8 13.9713 7.83404 13.8548 7.58093L11.5 2.46172Z" fill="black"/>
</svg>
