<svg width="16" height="19" viewBox="0 0 16 19" fill="none" xmlns="http://www.w3.org/2000/svg">
<path fill-rule="evenodd" clip-rule="evenodd" d="M0.00949442 0.84956C0.00425079 0.517354 0.319815 0.242999 0.714326 0.236772L15.0008 0.0112703C15.3954 0.00504328 15.7194 0.269302 15.7247 0.601508L15.9905 17.4439C15.9943 17.6872 15.8238 17.9092 15.5583 18.0066C15.2929 18.1039 14.9848 18.0573 14.7778 17.8885L8.0514 12.4034L1.50148 18.098C1.2999 18.2733 0.99347 18.3296 0.725075 18.2407C0.45668 18.1518 0.279178 17.9352 0.275338 17.6919L0.00949442 0.84956ZM1.44764 1.42852L1.68107 16.2172L7.52616 11.1354C7.80141 10.8961 8.2537 10.889 8.53637 11.1195L14.5389 16.0142L14.3055 1.22557L1.44764 1.42852Z" fill="black"/>
</svg>
